<svg xmlns="http://www.w3.org/2000/svg" xmlns:xlink="http://www.w3.org/1999/xlink" width="180" height="170" viewBox="0 0 180 170">
  <defs>
    <clipPath id="clip-on_hire">
      <rect width="180" height="170"/>
    </clipPath>
  </defs>
  <g id="on_hire" data-name="on hire" clip-path="url(#clip-on_hire)">
    <g id="Group_3" data-name="Group 3" transform="translate(4.205 37.117)">
      <path id="Path_167684-2" data-name="Path 167684-2" d="M164.43,30.459c17.4,30.136-1.109,93.908-35.26,93.109s-26.821-36.543-98.264-16.02-1.612-71.822,35.258-93.11S147.03.322,164.43,30.459Z" transform="translate(0 0)" fill="#00afef" opacity="0.2" style="isolation: isolate"/>
    </g>
    <g id="recruit" transform="translate(33 14)">
      <g id="Group_53189" data-name="Group 53189" transform="translate(2.794 2.794)">
        <g id="Group_53173" data-name="Group 53173" transform="translate(0 0)">
          <path id="Path_180732" data-name="Path 180732" d="M48.639,3.794V55.814A3.614,3.614,0,0,0,45.052,59.4V55.814a3.614,3.614,0,0,0-3.588-3.588,3.6,3.6,0,0,0-3.588,3.588,3.6,3.6,0,0,0-3.588-3.588A3.614,3.614,0,0,0,30.7,55.814V41.464a3.6,3.6,0,0,0-3.588-3.588,3.614,3.614,0,0,0-3.588,3.588V62.452A4.126,4.126,0,0,1,19.4,66.577a4.027,4.027,0,0,1-2.3-.7l-2.135-1.417a8.844,8.844,0,0,0-4.861-1.471,4.471,4.471,0,0,0-3.193,1.327,4.6,4.6,0,0,0-1.238,2.26H3.794A1.8,1.8,0,0,1,2,64.784V3.794A1.8,1.8,0,0,1,3.794,2H46.845A1.8,1.8,0,0,1,48.639,3.794Z" transform="translate(-2 -2)" fill="#e6e9ed"/>
        </g>
        <g id="Group_53174" data-name="Group 53174" transform="translate(14.351 17.938)">
          <path id="Path_180733" data-name="Path 180733" d="M27.938,20.969v1.794H10V20.969a8.969,8.969,0,1,1,17.938,0Z" transform="translate(-10 -12)" fill="#ff826e"/>
        </g>
        <g id="Group_53175" data-name="Group 53175" transform="translate(17.607 7.388)">
          <circle id="Ellipse_141" data-name="Ellipse 141" cx="5.247" cy="5.247" r="5.247" transform="translate(0 0)" fill="#f0d0b4"/>
        </g>
        <g id="Group_53176" data-name="Group 53176" transform="translate(57.402 25.113)">
          <path id="Path_180734" data-name="Path 180734" d="M75.688,42.943a5.254,5.254,0,0,0-4.018-1.83H69.876V37.526a3.6,3.6,0,0,0-3.588-3.588H51.938a3.6,3.6,0,0,1-3.588-3.588,7.173,7.173,0,0,0-7.175,7.175v3.588H39.381a5.254,5.254,0,0,0-4.018,1.83l-.018-.018-.09-.395A41.349,41.349,0,0,1,34,32.36a9.468,9.468,0,0,1,7.175-9.184A9.468,9.468,0,0,1,50.36,16h23.1a3.6,3.6,0,0,1,3.588,3.588V32.36A41.349,41.349,0,0,1,75.8,42.531l-.09.395Z" transform="translate(-34 -16)" fill="#656d78"/>
        </g>
        <g id="Group_53177" data-name="Group 53177" transform="translate(71.753 86.103)">
          <path id="Path_180735" data-name="Path 180735" d="M50.969,50l5.381,21.526H42L47.381,50Z" transform="translate(-42 -50)" fill="#fcd770"/>
        </g>
        <g id="Group_53178" data-name="Group 53178" transform="translate(75.448 78.928)">
          <path id="Path_180736" data-name="Path 180736" d="M51.02,48.1l-1.686,5.076H45.746L44.06,48.1,47.54,46Z" transform="translate(-44.06 -46)" fill="#ffc729"/>
        </g>
        <g id="Group_53179" data-name="Group 53179" transform="translate(78.928 75.34)">
          <path id="Path_180737" data-name="Path 180737" d="M56.6,44.807l-1.632,8.162L49.48,49.686,46,47.588,53.175,44A27.2,27.2,0,0,1,56.6,44.807Z" transform="translate(-46 -44)" fill="#3bafda"/>
        </g>
        <g id="Group_53180" data-name="Group 53180" transform="translate(68.326 75.34)">
          <path id="Path_180738" data-name="Path 180738" d="M50.691,47.588l-3.48,2.1-5.489,3.283L40.09,44.807A27.2,27.2,0,0,1,43.516,44Z" transform="translate(-40.09 -44)" fill="#3bafda"/>
        </g>
        <g id="Group_53181" data-name="Group 53181" transform="translate(50.227 76.147)">
          <path id="Path_180739" data-name="Path 180739" d="M49.732,52.612l5.489-3.283,1.686,5.076L51.526,75.931H30v-6.87A25.792,25.792,0,0,1,48.1,44.45Z" transform="translate(-30 -44.45)" fill="#4fc1e9"/>
        </g>
        <g id="Group_53182" data-name="Group 53182" transform="translate(80.722 76.147)">
          <path id="Path_180740" data-name="Path 180740" d="M63.144,75.931H52.381L47,54.406l1.686-5.077,5.489,3.283,1.632-8.162a25.792,25.792,0,0,1,18.1,24.611v6.87Z" transform="translate(-47 -44.45)" fill="#4fc1e9"/>
        </g>
        <g id="Group_53183" data-name="Group 53183" transform="translate(17.938 86.103)">
          <path id="Path_180741" data-name="Path 180741" d="M40.7,50l3.588,21.526H12L15.588,50Z" transform="translate(-12 -50)" fill="#4fc1e9"/>
        </g>
        <g id="Group_53184" data-name="Group 53184" transform="translate(3.588 35.876)">
          <path id="Path_180742" data-name="Path 180742" d="M43.464,43.526a3.614,3.614,0,0,1,3.588-3.588,3.6,3.6,0,0,1,3.588,3.588V60.37a21.424,21.424,0,0,1-3.588,11.857H21.938a20.838,20.838,0,0,1-7.785-9.6l-.3-.771A8.865,8.865,0,0,0,11.121,58.2l-6.44-5.166A1.794,1.794,0,0,1,4,51.634a5.3,5.3,0,0,1,.09-.933,4.6,4.6,0,0,1,1.238-2.26A4.471,4.471,0,0,1,8.52,47.113a8.844,8.844,0,0,1,4.861,1.471L15.516,50a4.027,4.027,0,0,0,2.3.7,4.126,4.126,0,0,0,4.126-4.126V25.588A3.614,3.614,0,0,1,25.526,22a3.6,3.6,0,0,1,3.588,3.588V39.938A3.614,3.614,0,0,1,32.7,36.351a3.6,3.6,0,0,1,3.588,3.588,3.6,3.6,0,0,1,3.588-3.588,3.614,3.614,0,0,1,3.588,3.588Z" transform="translate(-4 -22)" fill="#f0d0b4"/>
        </g>
        <g id="Group_53185" data-name="Group 53185" transform="translate(93.278 50.227)">
          <path id="Path_180743" data-name="Path 180743" d="M59.812,31.83a5.37,5.37,0,0,1-4.018,8.933H54V30h1.794A5.254,5.254,0,0,1,59.812,31.83Z" transform="translate(-54 -30)" fill="#f0d0b4"/>
        </g>
        <g id="Group_53186" data-name="Group 53186" transform="translate(71.753 71.501)">
          <path id="Path_180744" data-name="Path 180744" d="M52.763,42.111a10.889,10.889,0,0,0,2.314-.251L56.351,45.7l-7.175,3.588L42,45.7l1.274-3.839a10.889,10.889,0,0,0,2.314.251Z" transform="translate(-42 -41.86)" fill="#f0d0b4"/>
        </g>
        <g id="Group_53187" data-name="Group 53187" transform="translate(64.577 39.464)">
          <path id="Path_180745" data-name="Path 180745" d="M66.7,34.763V45.526a10.773,10.773,0,0,1-8.449,10.512,10.888,10.888,0,0,1-2.314.251H48.763a10.888,10.888,0,0,1-2.314-.251A10.773,10.773,0,0,1,38,45.526V31.175A7.173,7.173,0,0,1,45.175,24a3.6,3.6,0,0,0,3.588,3.588H63.113A3.6,3.6,0,0,1,66.7,31.175Z" transform="translate(-38 -24)" fill="#f0d0b4"/>
        </g>
        <g id="Group_53188" data-name="Group 53188" transform="translate(57.402 50.227)">
          <path id="Path_180746" data-name="Path 180746" d="M41.175,30V40.763H39.381a5.361,5.361,0,0,1-4.018-8.933A5.254,5.254,0,0,1,39.381,30Z" transform="translate(-34 -30)" fill="#f0d0b4"/>
        </g>
      </g>
      <g id="Group_53190" data-name="Group 53190" transform="translate(1 1)">
        <circle id="Ellipse_142" data-name="Ellipse 142" cx="1.967" cy="1.967" r="1.967" transform="translate(71.867 49.843)"/>
        <circle id="Ellipse_143" data-name="Ellipse 143" cx="1.967" cy="1.967" r="1.967" transform="translate(86.295 49.843)"/>
        <path id="Path_180747" data-name="Path 180747" d="M57.351,35H53.763a3.591,3.591,0,0,1-3.588,3.588H43v3.588h7.175A7.182,7.182,0,0,0,57.351,35Z" transform="translate(32.34 25.99)"/>
        <path id="Path_180748" data-name="Path 180748" d="M90.275,76.595,89.9,75.459a12.574,12.574,0,0,0,7.826-9.884h.144a7.168,7.168,0,0,0,5.968-11.149,43.718,43.718,0,0,0,1.207-10.155V31.495a5.388,5.388,0,0,0-5.381-5.381h-23.1a11.252,11.252,0,0,0-10.63,7.53A11.248,11.248,0,0,0,58.4,44.272a43.756,43.756,0,0,0,1.207,10.157,7.168,7.168,0,0,0,5.968,11.149h.144a12.58,12.58,0,0,0,7.826,9.884L73.169,76.6A27.423,27.423,0,0,0,52.38,95.672l-1.067-6.408a23.087,23.087,0,0,0,3.5-12.216V60.2a5.374,5.374,0,0,0-3.588-5.051V4.588A3.591,3.591,0,0,0,47.639,1H4.588A3.591,3.591,0,0,0,1,4.588v60.99a3.591,3.591,0,0,0,3.588,3.588H4.7A3.569,3.569,0,0,0,5.933,71.1l6.452,5.161a7.2,7.2,0,0,1,2.179,2.94l.307.766a22.512,22.512,0,0,0,7.5,9.728l-3.155,18.93H1v3.588H112.217v-8.671a27.445,27.445,0,0,0-21.942-26.95ZM74.3,80.018,78,81.865l-3.984,2.391-.8-4.006q.538-.129,1.091-.233Zm7.025,10.673h.786L86.6,108.629H76.842Zm.893-3.588h-1l-.831-2.49,1.331-.8,1.331.8Zm3.225-5.238,3.693-1.848q.552.1,1.092.233l-.8,4.006ZM97.866,61.99V54.814a3.588,3.588,0,0,1,0,7.175ZM61.99,58.4a3.591,3.591,0,0,1,3.588-3.588V61.99A3.591,3.591,0,0,1,61.99,58.4Zm3.588-8.969v1.794a7.123,7.123,0,0,0-2.863.6,40.212,40.212,0,0,1-.725-7.559,7.668,7.668,0,0,1,5.816-7.45l1.044-.262.262-1.044a7.667,7.667,0,0,1,7.45-5.816h23.1a1.8,1.8,0,0,1,1.794,1.794V44.272a40.184,40.184,0,0,1-.725,7.559,7.13,7.13,0,0,0-2.863-.6V49.433a5.388,5.388,0,0,0-5.381-5.381H78.134a1.8,1.8,0,0,1-1.794-1.794V36.876H72.753v3.769a8.983,8.983,0,0,0-7.175,8.788Zm3.588,14.351V49.433a5.393,5.393,0,0,1,3.966-5.193,5.39,5.39,0,0,0,5,3.4H92.485a1.8,1.8,0,0,1,1.794,1.794V63.784a8.979,8.979,0,0,1-8.969,8.969H78.134A8.979,8.979,0,0,1,69.165,63.784ZM78.134,76.34h7.175c.364,0,.725-.023,1.082-.056l.314.94-4.983,2.492-4.981-2.49.314-.94C77.409,76.317,77.77,76.34,78.134,76.34Zm-8.361,5.01,1.72,8.6L77.239,86.5l.822,2.466-4.913,19.658h-7.57V97.866H61.99v10.763H54.814v-5.084A23.865,23.865,0,0,1,69.773,81.35ZM4.588,4.588H47.639V55.145c-.068.025-.142.038-.208.065a5.334,5.334,0,0,0-8.761-2.583,5.216,5.216,0,0,0-5.381-1.069V47.639H44.052V44.052H33.289V42.258a5.321,5.321,0,0,0-.33-1.794H44.052V36.876H18.938v3.588h3.918a5.321,5.321,0,0,0-.33,1.794v1.794H8.175v3.588H22.526v3.588H8.175v3.588H22.526V63.24a2.337,2.337,0,0,1-3.634,1.944L16.76,63.764A10.524,10.524,0,0,0,10.9,61.99a6.3,6.3,0,0,0-5.668,3.588H4.588ZM18.2,78.636l-.307-.764a10.787,10.787,0,0,0-3.268-4.409L8.175,68.3A2.728,2.728,0,0,1,10.9,65.577a6.95,6.95,0,0,1,3.869,1.171L16.9,68.169a5.924,5.924,0,0,0,9.211-4.929V42.258a1.794,1.794,0,1,1,3.588,0V69.165h3.588V56.608a1.794,1.794,0,0,1,3.588,0V69.165h3.588V56.608a1.794,1.794,0,1,1,3.588,0V69.165h3.588V60.2a1.794,1.794,0,1,1,3.588,0V77.049A19.479,19.479,0,0,1,48.445,87.1H24.877A18.963,18.963,0,0,1,18.2,78.636Zm7.638,12.054H47.914l2.99,17.938H22.849Zm82.79,17.938h-7.175V97.866H97.866v10.763H90.3l-4.913-19.66L86.2,86.5,91.95,89.95l1.72-8.6a23.87,23.87,0,0,1,14.959,22.2Z" transform="translate(-1 -1)"/>
        <path id="Path_180749" data-name="Path 180749" d="M30.526,26.526A10.765,10.765,0,0,0,24.952,17.1a7.175,7.175,0,1,0-10.379,0A10.765,10.765,0,0,0,9,26.526v3.588H30.526ZM16.175,12.175a3.588,3.588,0,1,1,3.588,3.588A3.591,3.591,0,0,1,16.175,12.175ZM12.588,26.526a7.175,7.175,0,1,1,14.351,0Z" transform="translate(5.351 2.175)"/>
        <path id="Path_180750" data-name="Path 180750" d="M5,21h7.175v3.588H5Z" transform="translate(2.175 14.876)"/>
      </g>
    </g>
  </g>
</svg>
