<svg xmlns="http://www.w3.org/2000/svg" xmlns:xlink="http://www.w3.org/1999/xlink" width="180" height="170" viewBox="0 0 180 170">
  <defs>
    <clipPath id="clip-fixed_cost">
      <rect width="180" height="170"/>
    </clipPath>
  </defs>
  <g id="fixed_cost" data-name="fixed cost" clip-path="url(#clip-fixed_cost)">
    <g id="Group_3" data-name="Group 3" transform="translate(4.205 37.117)">
      <path id="Path_167684-2" data-name="Path 167684-2" d="M164.43,30.459c17.4,30.136-1.109,93.908-35.26,93.109s-26.821-36.543-98.264-16.02-1.612-71.822,35.258-93.11S147.03.322,164.43,30.459Z" transform="translate(0 0)" fill="#fd33d4" opacity="0.2" style="isolation: isolate"/>
    </g>
    <g id="money-bag" transform="translate(33 15)">
      <path id="Path_180715" data-name="Path 180715" d="M152.753,145.523H96.781a7.54,7.54,0,0,1-6.89-10.6l2.828-6.363V94.622A22.622,22.622,0,0,1,115.341,72h18.852a22.622,22.622,0,0,1,22.622,22.622v33.934l2.828,6.363a7.54,7.54,0,0,1-6.89,10.6Zm0,0" transform="translate(-68.211 -55.033)" fill="#ffb531"/>
      <path id="Path_180716" data-name="Path 180716" d="M180.787,163.382l-2.828-6.363V123.086a22.509,22.509,0,0,0-4.758-13.847c-12.256,34.995-38.926,54.944-56.3,64.68a7.744,7.744,0,0,0,1.022.068H173.9a7.54,7.54,0,0,0,6.89-10.6Zm0,0" transform="translate(-89.354 -83.496)" fill="#ffa912"/>
      <path id="Path_180717" data-name="Path 180717" d="M165.885,103.284,164,100.021a17.012,17.012,0,0,1,4.244-1.74l.943,3.65a13.068,13.068,0,0,0-3.3,1.353Zm0,0" transform="translate(-125.353 -75.121)" fill="#ffcb73"/>
      <path id="Path_180718" data-name="Path 180718" d="M131.77,136.075H128v-7.541a16.833,16.833,0,0,1,5.152-12.167l2.626,2.7a13.1,13.1,0,0,0-4.008,9.464Zm0,0" transform="translate(-97.837 -88.945)" fill="#ffcb73"/>
      <path id="Path_180719" data-name="Path 180719" d="M194.393,23.082H175.541L168,8h33.934Zm0,0" transform="translate(-128.411 -6.115)" fill="#ffb531"/>
      <path id="Path_180720" data-name="Path 180720" d="M207.082,151.082h-7.541a3.77,3.77,0,1,1,0-7.541h13.2v-3.77H205.2V136h-3.77v3.77h-1.885a7.541,7.541,0,0,0,0,15.082h7.541a3.77,3.77,0,0,1,0,7.541h-13.2v3.77h7.541v3.77h3.77v-3.77h1.885a7.541,7.541,0,1,0,0-15.082Zm0,0" transform="translate(-146.755 -103.952)" fill="#f58f00"/>
      <path id="Path_180721" data-name="Path 180721" d="M101.544,305.992a28.756,28.756,0,0,0-33.453-1.329H53.245a7.541,7.541,0,1,0,0,15.082h-3.77l-29.364-14.7a8.229,8.229,0,0,0-8.624.776l-.095.07A8.45,8.45,0,0,0,8,312.66v.2a8.428,8.428,0,0,0,4.4,7.4L44.413,337.72a22.625,22.625,0,0,0,10.831,2.761h47.017V306.548Zm0,0" transform="translate(-6.115 -229.255)" fill="#fec9a3"/>
      <path id="Path_180722" data-name="Path 180722" d="M408,328h15.082v33.934H408Zm0,0" transform="translate(-311.855 -250.707)" fill="#348fd9"/>
      <path id="Path_180723" data-name="Path 180723" d="M408,424h15.082v11.311H408Zm0,0" transform="translate(-311.855 -324.084)" fill="#3086cd"/>
      <path id="Path_180724" data-name="Path 180724" d="M432,424h3.77v3.77H432Zm0,0" transform="translate(-330.199 -324.084)" fill="#1a5485"/>
      <path id="Path_180725" data-name="Path 180725" d="M216.508,379.77H193.885a1.885,1.885,0,1,1,0-3.77h22.622a1.885,1.885,0,1,1,0,3.77Zm0,0" transform="translate(-146.755 -287.396)" fill="#feb784"/>
      <path id="Path_180726" data-name="Path 180726" d="M163.867,65.982V39.589A24.437,24.437,0,0,0,142.314,15.27L148.6,2.728A1.885,1.885,0,0,0,146.9,0H112.967a1.885,1.885,0,0,0-1.687,2.727l6.276,12.543A24.531,24.531,0,0,0,96,39.589V73.523h3.77V39.589a20.762,20.762,0,0,1,20.737-20.737H139.36A20.708,20.708,0,0,1,160.1,39.589V65.982Zm-25.673-50.9H121.673L116.017,3.77H143.85Zm0,0" transform="translate(-73.378 0)"/>
      <path id="Path_180727" data-name="Path 180727" d="M165.873,103.284a13.065,13.065,0,0,1,3.3-1.353l-.943-3.65a17.013,17.013,0,0,0-4.244,1.74Zm0,0" transform="translate(-125.341 -75.121)"/>
      <path id="Path_180728" data-name="Path 180728" d="M128,136.075h3.77v-7.541a13.1,13.1,0,0,1,4.008-9.464l-2.626-2.7A16.833,16.833,0,0,0,128,128.534Zm0,0" transform="translate(-97.837 -88.945)"/>
      <path id="Path_180729" data-name="Path 180729" d="M5.377,315.794,37.382,333.25a24.5,24.5,0,0,0,11.747,3h62.1a1.885,1.885,0,0,0,1.885-1.885V300.433a1.885,1.885,0,0,0-1.885-1.885H96.8l-.215-.168a29.845,29.845,0,0,0-7.269-4.18,30.577,30.577,0,0,0-27.886,2.462H47.13a9.426,9.426,0,0,0-8.994,12.254l-23.3-11.677a10.085,10.085,0,0,0-10.68,1.022A10.366,10.366,0,0,0,0,306.542v.207a10.275,10.275,0,0,0,5.377,9.045Zm92.654-13.475h11.311v30.163H98.031ZM3.77,306.542A6.66,6.66,0,0,1,6.5,301.207a6.308,6.308,0,0,1,6.641-.6l29.373,14.7a1.869,1.869,0,0,0,.842.2H71.638v-3.77H47.13a5.656,5.656,0,1,1,0-11.311H61.985a1.9,1.9,0,0,0,1.039-.311A26.8,26.8,0,0,1,87.909,297.7a26.179,26.179,0,0,1,6.352,3.65v31.134H49.128a20.73,20.73,0,0,1-9.939-2.542L7.175,312.482a6.507,6.507,0,0,1-3.4-5.733Zm0,0" transform="translate(0 -223.14)"/>
      <path id="Path_180730" data-name="Path 180730" d="M432,424h3.77v3.77H432Zm0,0" transform="translate(-330.199 -324.084)"/>
      <path id="Path_180731" data-name="Path 180731" d="M205.2,169.934v-3.77h1.885a7.541,7.541,0,1,0,0-15.082h-7.541a3.77,3.77,0,1,1,0-7.541h13.2v-3.77H205.2V136h-3.77v3.77h-1.885a7.541,7.541,0,0,0,0,15.082h7.541a3.77,3.77,0,0,1,0,7.541h-13.2v3.77h7.541v3.77Zm0,0" transform="translate(-146.755 -103.952)"/>
    </g>
  </g>
</svg>
